<?xml version="1.0" ?><svg height="512px" id="Shovel_and_Pal" style="enable-background:new 0 0 512 512;" version="1.1" viewBox="0 0 512 512" width="512px" xml:space="preserve" xmlns="http://www.w3.org/2000/svg" xmlns:xlink="http://www.w3.org/1999/xlink"><style type="text/css">
	.st0{fill:none;stroke:#2C3E50;stroke-width:30;stroke-miterlimit:10;}
	.st1{fill:#2C3E50;}
	.st2{fill:none;stroke:#2C3E50;stroke-width:30;stroke-linecap:round;stroke-miterlimit:10;}
</style><path class="st0" d="M468,451.1c0,18.3-15.2,32.9-33.6,32.9h-363C53.1,484,38,469.4,38,451.1V110.2C38,91.9,53.1,77,71.4,77h363  c18.3,0,33.6,14.9,33.6,33.2V451.1z"/><g><rect class="st1" height="36" width="47" x="147" y="249"/><rect class="st1" height="35" width="47" x="147" y="320"/><rect class="st1" height="35" width="47" x="147" y="391"/><rect class="st1" height="36" width="47" x="229" y="249"/><rect class="st1" height="35" width="47" x="229" y="320"/><rect class="st1" height="35" width="47" x="229" y="391"/><rect class="st1" height="36" width="47" x="312" y="249"/><rect class="st1" height="35" width="47" x="312" y="320"/><rect class="st1" height="35" width="47" x="312" y="391"/></g><line class="st2" x1="177" x2="177" y1="25" y2="121"/><line class="st2" x1="329" x2="329" y1="25" y2="121"/><line class="st0" x1="38" x2="468" y1="193" y2="193"/></svg>